<svg width="237" height="205" viewBox="0 0 237 205" fill="none" xmlns="http://www.w3.org/2000/svg">
<path d="M85.9161 97.671C85.9161 97.671 80.0843 77.7729 91.8646 65.2695C103.645 52.7661 114.492 39.5395 114.492 33.941C114.492 28.3424 123.31 76.9331 85.9161 97.671Z" fill="white"/>
<path d="M74.9018 142.506C74.9018 142.506 54.887 131.426 58.9926 112.671C63.0982 93.9157 75.4383 97.4848 71.6826 77.1201C71.6826 77.1201 83.2996 88.6205 76.0215 113.861C68.7434 139.101 74.3653 141.737 74.9018 142.506Z" fill="white"/>
<path d="M48.9908 109.824C48.9908 109.824 29.0927 119.108 36.6507 133.641C44.2087 148.174 71.9915 150.484 73.9743 151.347C75.9571 152.21 39.1934 124.894 48.9908 109.824Z" fill="white"/>
<path d="M103.668 86.7773C103.668 86.7773 91.9106 110.011 84.4692 115.726C77.0278 121.442 76.6779 143.253 86.3354 156.293C95.9929 169.333 85.449 186.082 67.207 178.08C67.207 178.08 76.258 186.385 85.4256 186.058C94.5932 185.732 103.644 186.058 103.644 186.058V86.7773H103.668Z" fill="white"/>
<path d="M64.5229 186.828C29.5087 186.828 11.64 177.008 17.3552 160.212C17.985 158.323 19.6646 153.914 24.0734 150.671C28.249 147.592 35.3871 145.166 39.6794 148.105C39.7493 148.152 39.796 148.199 39.9126 148.269C41.4056 149.365 46.1643 152.631 45.7678 157.413C45.6278 159.046 46.7942 161.822 39.6794 167.583C26.1262 178.617 64.5229 186.828 64.5229 186.828Z" fill="white"/>
<path d="M79.7333 186.361C56.4294 185.032 44.9524 177.357 49.4312 165.623C49.9444 164.317 51.2274 161.215 54.2833 159.068C57.1992 157.039 62.0279 155.569 64.7806 157.832C64.8272 157.879 64.8505 157.902 64.9205 157.972C65.8769 158.812 68.9095 161.308 68.4429 164.714C68.2796 165.857 68.9328 167.886 63.9874 171.735C54.5166 179.06 79.7333 186.361 79.7333 186.361Z" fill="white"/>
<path d="M150.954 97.3212C150.954 97.3212 156.786 77.4231 145.006 64.9197C133.202 52.4163 122.378 39.1897 122.378 33.5912C122.378 27.9926 113.561 76.6066 150.954 97.3212Z" fill="white"/>
<path d="M161.962 142.179C161.962 142.179 181.977 131.099 177.871 112.344C173.766 93.5886 161.426 97.1577 165.181 76.793C165.181 76.793 153.564 88.2933 160.842 113.533C168.097 138.774 162.499 141.386 161.962 142.179Z" fill="white"/>
<path d="M187.878 109.475C187.878 109.475 207.776 118.759 200.218 133.292C192.683 147.825 164.877 150.134 162.894 150.997C160.911 151.884 197.675 124.567 187.878 109.475Z" fill="white"/>
<path d="M133.199 86.4277C133.199 86.4277 144.956 109.662 152.398 115.377C159.839 121.092 160.189 142.903 150.531 155.943C140.874 168.983 151.418 185.732 169.66 177.731C169.66 177.731 160.609 186.035 151.441 185.709C142.274 185.382 133.223 185.709 133.223 185.709V86.4277H133.199Z" fill="white"/>
<path d="M172.34 186.478C207.354 186.478 225.223 176.657 219.508 159.861C218.878 157.972 217.198 153.563 212.789 150.321C208.614 147.241 201.476 144.815 197.183 147.755C197.113 147.801 197.067 147.848 196.95 147.918C195.457 149.014 190.698 152.28 191.095 157.062C191.235 158.695 190.069 161.471 197.183 167.233C210.737 178.267 172.34 186.478 172.34 186.478Z" fill="white"/>
<path d="M157.133 186.034C180.437 184.705 191.914 177.03 187.435 165.296C186.922 163.99 185.639 160.887 182.583 158.741C179.667 156.712 174.838 155.242 172.086 157.505C172.039 157.552 172.016 157.575 171.946 157.645C170.989 158.485 167.957 160.981 168.423 164.386C168.586 165.53 167.933 167.559 172.879 171.408C182.35 178.709 157.133 186.034 157.133 186.034Z" fill="white"/>
</svg>
